<svg width="20" height="20" viewBox="0 0 20 20" fill="none" xmlns="http://www.w3.org/2000/svg">
<path d="M17.258 3.04542C17.258 3.04542 18.8769 2.41417 18.742 3.94721C18.697 4.57846 18.2923 6.78784 17.9775 9.17759L16.8983 16.2566C16.8983 16.2566 16.8084 17.2937 15.9989 17.474C15.1895 17.6544 13.9753 16.8428 13.7505 16.6624C13.5706 16.5272 10.3778 14.4981 9.25358 13.5062C8.93879 13.2356 8.57904 12.6945 9.29854 12.0633L14.0203 7.55438C14.5599 7.0133 15.0995 5.7508 12.8511 7.28384L6.55546 11.5673C6.55546 11.5673 5.83596 12.0182 4.48692 11.6124L1.56393 10.7106C1.56393 10.7106 0.484671 10.0343 2.3284 9.35792C6.82529 7.23871 12.3565 5.07442 17.258 3.04542Z" fill="white"/>
</svg>
