<svg width="186" height="83" viewBox="0 0 186 83" fill="none" xmlns="http://www.w3.org/2000/svg">
<path d="M19.0609 0.849385H43.7084V13.1732H19.0609V0.849385Z" fill="white"/>
<path d="M90.1291 0.849385H114.777V13.1732H90.1291V0.849385Z" fill="white"/>
<path d="M50.2827 0.667114H83.5569V12.9909H50.2827V0.667114Z" fill="white"/>
<path d="M161.195 0.849385H185.843V13.1732H161.195V0.849385Z" fill="white"/>
<path d="M121.349 0.667114H154.623V12.9909H121.349V0.667114Z" fill="white"/>
<path d="M0.165039 18.0791H24.8126V30.4028H0.165039V18.0791Z" fill="white"/>
<path d="M71.2313 18.0791H95.8788V30.4028H71.2313V18.0791Z" fill="white"/>
<path d="M31.3849 17.8973H64.6591V30.221H31.3849V17.8973Z" fill="white"/>
<path d="M142.299 18.0791H166.947V30.4028H142.299V18.0791Z" fill="white"/>
<path d="M102.451 17.8973H135.725V30.221H102.451V17.8973Z" fill="white"/>
<path d="M19.0609 35.4917H43.7084V47.8155H19.0609V35.4917Z" fill="white"/>
<path d="M90.1291 35.4917H114.777V47.8155H90.1291V35.4917Z" fill="white"/>
<path d="M50.2827 35.3088H83.5569V47.6325H50.2827V35.3088Z" fill="white"/>
<path d="M161.195 35.4917H185.843V47.8155H161.195V35.4917Z" fill="white"/>
<path d="M121.349 35.3088H154.623V47.6325H121.349V35.3088Z" fill="white"/>
<path d="M0.165039 52.9273H24.8126V65.251H0.165039V52.9273Z" fill="white"/>
<path d="M71.2313 52.9273H95.8788V65.251H71.2313V52.9273Z" fill="white"/>
<path d="M31.3849 52.7451H64.6591V65.0689H31.3849V52.7451Z" fill="white"/>
<path d="M142.299 52.9273H166.947V65.251H142.299V52.9273Z" fill="white"/>
<path d="M102.451 52.7451H135.725V65.0689H102.451V52.7451Z" fill="white"/>
<path d="M19.0609 70.3389H43.7084V82.6626H19.0609V70.3389Z" fill="white"/>
<path d="M90.1291 70.3389H114.777V82.6626H90.1291V70.3389Z" fill="white"/>
<path d="M50.2827 70.1571H83.5569V82.4809H50.2827V70.1571Z" fill="white"/>
<path d="M161.195 70.3389H185.843V82.6626H161.195V70.3389Z" fill="white"/>
<path d="M121.349 70.1571H154.623V82.4809H121.349V70.1571Z" fill="white"/>
</svg>
