<svg width="30" height="31" viewBox="0 0 30 31" fill="none" xmlns="http://www.w3.org/2000/svg">
<path d="M26.25 3.3443H3.75C3.05964 3.3443 2.5 3.90394 2.5 4.5943V27.0943C2.5 27.7847 3.05964 28.3443 3.75 28.3443H26.25C26.9404 28.3443 27.5 27.7847 27.5 27.0943V4.5943C27.5 3.90394 26.9404 3.3443 26.25 3.3443Z" stroke="#8C4FF6" stroke-width="2.5" stroke-linecap="round" stroke-linejoin="round"/>
<path d="M2.5 9.5943H27.5" stroke="#8C4FF6" stroke-width="2.5" stroke-linecap="round" stroke-linejoin="round"/>
<path d="M2.5 7.7193V15.2193" stroke="#8C4FF6" stroke-width="2.5" stroke-linecap="round" stroke-linejoin="round"/>
<path d="M5.44564 16.5743C5.62897 16.567 5.83797 16.567 6.07264 16.5743C6.31464 16.5743 6.56031 16.5816 6.80964 16.5963C7.05897 16.6036 7.30831 16.6146 7.55764 16.6293C7.80697 16.644 8.03797 16.6586 8.25064 16.6733C7.81064 17.6706 7.34131 18.668 6.84264 19.6653C6.35131 20.6626 5.85631 21.6966 5.35764 22.7673C5.46764 22.7966 5.59597 22.815 5.74264 22.8223C5.88931 22.8223 6.03964 22.8186 6.19364 22.8113C6.34764 22.804 6.49797 22.7966 6.64464 22.7893C6.79131 22.7746 6.91964 22.7673 7.02964 22.7673C7.29364 22.2466 7.56864 21.7296 7.85464 21.2163C8.14064 20.703 8.42664 20.1933 8.71264 19.6873C8.99864 19.174 9.27364 18.6643 9.53764 18.1583C9.80897 17.645 10.0546 17.1353 10.2746 16.6293C10.2746 16.3433 10.2673 16.0903 10.2526 15.8703C10.2453 15.643 10.249 15.3863 10.2636 15.1003V15.0893C9.90431 15.0526 9.52297 15.0306 9.11964 15.0233C8.72364 15.0086 8.31664 15.005 7.89864 15.0123C7.48797 15.0123 7.07731 15.0196 6.66664 15.0343C6.25597 15.049 5.85997 15.06 5.47864 15.0673V15.0783C5.47131 15.2983 5.46764 15.544 5.46764 15.8153C5.46764 16.0793 5.45297 16.3323 5.42364 16.5743H5.44564ZM11.9384 21.1833C11.9824 21.0733 12.0227 20.9633 12.0594 20.8533C12.1034 20.7433 12.1437 20.6333 12.1804 20.5233C12.3271 20.1273 12.4627 19.7313 12.5874 19.3353C12.7194 18.9393 12.8551 18.5396 12.9944 18.1363C13.0604 17.9383 13.1301 17.7403 13.2034 17.5423C13.2767 17.337 13.3501 17.1316 13.4234 16.9263C13.5701 16.4423 13.6801 16.083 13.7534 15.8483C13.8267 15.6063 13.8781 15.434 13.9074 15.3313C13.9221 15.2873 13.9331 15.2543 13.9404 15.2323C13.9477 15.203 13.9587 15.17 13.9734 15.1333C13.8854 15.0893 13.7791 15.0636 13.6544 15.0563C13.5297 15.049 13.4014 15.049 13.2694 15.0563C13.1374 15.0636 13.0054 15.071 12.8734 15.0783C12.7414 15.0783 12.6241 15.0673 12.5214 15.0453C12.4701 15.2506 12.4151 15.4523 12.3564 15.6503C12.2977 15.8483 12.2391 16.028 12.1804 16.1893C12.1291 16.3433 12.0851 16.4716 12.0484 16.5743C12.0117 16.677 11.9897 16.7356 11.9824 16.7503C11.9091 16.963 11.8394 17.1756 11.7734 17.3883C11.7147 17.601 11.6451 17.8136 11.5644 18.0263C11.3444 18.6203 11.1684 19.0933 11.0364 19.4453C10.9044 19.7973 10.8017 20.0723 10.7284 20.2703C10.6624 20.4683 10.6147 20.6076 10.5854 20.6883C10.5634 20.769 10.5451 20.835 10.5304 20.8863C10.4571 21.0476 10.3911 21.209 10.3324 21.3703C10.2811 21.5316 10.2297 21.693 10.1784 21.8543C10.1711 21.8836 10.1454 21.9533 10.1014 22.0633C10.0574 22.166 10.0134 22.276 9.96939 22.3933C9.93272 22.5106 9.90339 22.617 9.88139 22.7123C9.85939 22.8076 9.86306 22.8553 9.89239 22.8553H9.90339C10.1527 22.848 10.3544 22.8443 10.5084 22.8443C10.6697 22.8443 10.7981 22.8443 10.8934 22.8443C10.9961 22.8443 11.0731 22.8443 11.1244 22.8443C11.1831 22.837 11.2344 22.8296 11.2784 22.8223C11.2857 22.815 11.2967 22.7966 11.3114 22.7673L11.9384 21.1833ZM19.1996 22.8003C19.2289 22.8003 19.2436 22.7966 19.2436 22.7893C19.2216 22.7086 19.2106 22.628 19.2106 22.5473C19.2179 22.4666 19.2216 22.386 19.2216 22.3053C19.2289 22.122 19.2326 21.9386 19.2326 21.7553C19.2326 21.5646 19.2033 21.396 19.1446 21.2493C18.6679 21.2493 18.2169 21.2566 17.7916 21.2713C17.3736 21.286 16.9189 21.286 16.4276 21.2713C16.3983 21.2566 16.3836 21.2236 16.3836 21.1723C16.3909 21.1136 16.4019 21.0513 16.4166 20.9853C16.4386 20.9193 16.4606 20.8533 16.4826 20.7873C16.5119 20.7213 16.5339 20.67 16.5486 20.6333C16.6806 20.472 16.8383 20.3363 17.0216 20.2263C17.2123 20.109 17.4066 19.999 17.6046 19.8963C17.8099 19.7936 18.0116 19.691 18.2096 19.5883C18.4149 19.4856 18.5983 19.3646 18.7596 19.2253C18.9283 19.086 19.0676 18.9246 19.1776 18.7413C19.2949 18.5506 19.3646 18.3196 19.3866 18.0483C19.3939 17.9016 19.3939 17.7403 19.3866 17.5643C19.3793 17.381 19.3719 17.2123 19.3646 17.0583C19.3279 16.6623 19.2216 16.2993 19.0456 15.9693C18.8696 15.6393 18.6166 15.39 18.2866 15.2213C18.0886 15.1406 17.8393 15.0856 17.5386 15.0563C17.2453 15.0196 16.9446 15.016 16.6366 15.0453C16.3286 15.0746 16.0389 15.1406 15.7676 15.2433C15.4963 15.346 15.2873 15.4926 15.1406 15.6833C14.8693 15.984 14.6859 16.358 14.5906 16.8053C14.5026 17.2453 14.5026 17.7183 14.5906 18.2243V18.2463H14.6016C14.8509 18.2756 15.1003 18.283 15.3496 18.2683C15.6063 18.2536 15.8996 18.228 16.2296 18.1913H16.2406V18.1693C16.2479 18.0373 16.2589 17.8943 16.2736 17.7403C16.2956 17.5863 16.3323 17.4433 16.3836 17.3113C16.4423 17.172 16.5229 17.0583 16.6256 16.9703C16.7356 16.8823 16.8786 16.8383 17.0546 16.8383C17.2233 16.8603 17.3553 16.9373 17.4506 17.0693C17.5533 17.194 17.6119 17.3406 17.6266 17.5093C17.6413 17.678 17.6156 17.8466 17.5496 18.0153C17.4909 18.184 17.3883 18.316 17.2416 18.4113C17.0509 18.5653 16.8529 18.701 16.6476 18.8183C16.4496 18.9356 16.2479 19.0566 16.0426 19.1813C15.8446 19.306 15.6466 19.4416 15.4486 19.5883C15.2579 19.7276 15.0746 19.8963 14.8986 20.0943C14.7813 20.285 14.6969 20.4903 14.6456 20.7103C14.6016 20.923 14.5723 21.1466 14.5576 21.3813C14.5429 21.6086 14.5356 21.8433 14.5356 22.0853C14.5429 22.3273 14.5356 22.573 14.5136 22.8223C14.5136 22.837 14.5173 22.848 14.5246 22.8553H15.0196L19.1996 22.8003ZM23.8971 19.2253C23.8898 19.174 23.8861 19.0383 23.8861 18.8183C23.8861 18.591 23.8861 18.327 23.8861 18.0263C23.8934 17.7256 23.9008 17.4066 23.9081 17.0693C23.9228 16.7246 23.9338 16.4093 23.9411 16.1233C23.9484 15.83 23.9558 15.588 23.9631 15.3973C23.9704 15.2066 23.9741 15.1076 23.9741 15.1003H23.9521C23.8934 15.093 23.7761 15.093 23.6001 15.1003C23.4241 15.1003 23.2408 15.104 23.0501 15.1113C22.8594 15.1113 22.6798 15.115 22.5111 15.1223C22.3498 15.1223 22.2544 15.1223 22.2251 15.1223C22.2178 15.1223 22.2141 15.126 22.2141 15.1333C21.8034 15.7493 21.4588 16.2846 21.1801 16.7393C20.9088 17.194 20.6814 17.5826 20.4981 17.9053C20.3221 18.2206 20.1828 18.4773 20.0801 18.6753C19.9774 18.866 19.8894 19.0126 19.8161 19.1153C19.8014 19.5553 19.8124 19.9183 19.8491 20.2043C19.8858 20.4903 19.9114 20.659 19.9261 20.7103C19.9334 20.725 19.9921 20.736 20.1021 20.7433C20.2121 20.7433 20.3478 20.7433 20.5091 20.7433C20.6778 20.7433 20.8574 20.7433 21.0481 20.7433C21.2461 20.736 21.4294 20.7323 21.5981 20.7323C21.7741 20.7323 21.9244 20.736 22.0491 20.7433C22.1738 20.7506 22.2508 20.758 22.2801 20.7653C22.2801 20.78 22.2764 20.8423 22.2691 20.9523C22.2618 21.0623 22.2508 21.1943 22.2361 21.3483C22.2288 21.5023 22.2178 21.6673 22.2031 21.8433C22.1958 22.0193 22.1884 22.1843 22.1811 22.3383C22.1738 22.485 22.1664 22.6096 22.1591 22.7123C22.1518 22.815 22.1518 22.87 22.1591 22.8773C22.6651 22.87 23.0428 22.8663 23.2921 22.8663C23.5488 22.8736 23.6991 22.8516 23.7431 22.8003C23.7504 22.771 23.7578 22.7013 23.7651 22.5913C23.7724 22.4813 23.7798 22.353 23.7871 22.2063C23.8018 22.0596 23.8128 21.9093 23.8201 21.7553C23.8348 21.594 23.8458 21.4473 23.8531 21.3153C23.8678 21.176 23.8788 21.066 23.8861 20.9853C23.8934 20.8973 23.8971 20.857 23.8971 20.8643C23.9998 20.8423 24.1061 20.8423 24.2161 20.8643C24.3334 20.879 24.4508 20.868 24.5681 20.8313L24.6341 19.2363C24.5461 19.2363 24.4361 19.229 24.3041 19.2143C24.1721 19.1996 24.0584 19.1996 23.9631 19.2143L23.8971 19.2253ZM22.5771 19.2473C22.5258 19.2546 22.4194 19.2583 22.2581 19.2583C22.1041 19.2583 21.9428 19.2583 21.7741 19.2583C21.6054 19.251 21.4551 19.2473 21.3231 19.2473C21.1911 19.24 21.1251 19.2363 21.1251 19.2363C21.1324 19.2216 21.1728 19.1483 21.2461 19.0163C21.3268 18.8843 21.4221 18.7266 21.5321 18.5433C21.6421 18.3526 21.7594 18.1546 21.8841 17.9493C22.0088 17.7366 22.1224 17.546 22.2251 17.3773C22.3351 17.2086 22.4231 17.0766 22.4891 16.9813C22.5624 16.8786 22.6028 16.8493 22.6101 16.8933L22.5771 19.2473Z" fill="#8C4FF6"/>
</svg>
