<svg width="62" height="28" viewBox="0 0 62 28" fill="none" xmlns="http://www.w3.org/2000/svg">
<rect x="6.6972" y="0.684448" width="8.04093" height="4.02047" fill="white"/>
<rect x="29.8819" y="0.684448" width="8.04093" height="4.02047" fill="white"/>
<rect x="16.8824" y="0.625" width="10.8553" height="4.02047" fill="white"/>
<rect x="53.0666" y="0.684448" width="8.04093" height="4.02047" fill="white"/>
<rect x="40.067" y="0.625" width="10.8553" height="4.02047" fill="white"/>
<rect x="0.532471" y="6.30542" width="8.04093" height="4.02047" fill="white"/>
<rect x="23.7172" y="6.30542" width="8.04093" height="4.02047" fill="white"/>
<rect x="10.7177" y="6.24609" width="10.8553" height="4.02047" fill="white"/>
<rect x="46.9019" y="6.30542" width="8.04093" height="4.02047" fill="white"/>
<rect x="33.9023" y="6.24609" width="10.8553" height="4.02047" fill="white"/>
<rect x="6.6972" y="11.9861" width="8.04093" height="4.02047" fill="white"/>
<rect x="29.8819" y="11.9861" width="8.04093" height="4.02047" fill="white"/>
<rect x="16.8824" y="11.9264" width="10.8553" height="4.02047" fill="white"/>
<rect x="53.0666" y="11.9861" width="8.04093" height="4.02047" fill="white"/>
<rect x="40.067" y="11.9264" width="10.8553" height="4.02047" fill="white"/>
<rect x="0.532471" y="17.6742" width="8.04093" height="4.02047" fill="white"/>
<rect x="23.7172" y="17.6742" width="8.04093" height="4.02047" fill="white"/>
<rect x="10.7177" y="17.6147" width="10.8553" height="4.02047" fill="white"/>
<rect x="46.9019" y="17.6742" width="8.04093" height="4.02047" fill="white"/>
<rect x="33.9023" y="17.6147" width="10.8553" height="4.02047" fill="white"/>
<rect x="6.6972" y="23.3545" width="8.04093" height="4.02047" fill="white"/>
<rect x="29.8819" y="23.3545" width="8.04093" height="4.02047" fill="white"/>
<rect x="16.8824" y="23.2952" width="10.8553" height="4.02047" fill="white"/>
<rect x="53.0666" y="23.3545" width="8.04093" height="4.02047" fill="white"/>
<rect x="40.067" y="23.2952" width="10.8553" height="4.02047" fill="white"/>
</svg>
