<svg width="153" height="47" viewBox="0 0 153 47" fill="none" xmlns="http://www.w3.org/2000/svg">
<path d="M22.7775 16.6421H28.6975C32.1508 16.6421 33.8775 18.1021 33.8775 21.0221C33.8775 23.9688 32.1375 25.4421 28.6575 25.4421H25.1175V30.9221H22.7775V16.6421ZM25.1175 18.6421V23.4421H28.5175C29.5442 23.4421 30.3042 23.2555 30.7975 22.8821C31.2775 22.4955 31.5175 21.8755 31.5175 21.0221C31.5175 20.1821 31.2708 19.5755 30.7775 19.2021C30.3108 18.8288 29.5575 18.6421 28.5175 18.6421H25.1175ZM35.883 16.6421H38.223V25.5421C38.223 26.7821 38.5096 27.6955 39.083 28.2821C39.643 28.8688 40.5563 29.1621 41.823 29.1621C43.063 29.1621 43.9763 28.8688 44.563 28.2821C45.1363 27.6688 45.423 26.7555 45.423 25.5421V16.6421H47.763V25.5021C47.763 27.3555 47.243 28.7755 46.203 29.7621C45.163 30.7221 43.703 31.2021 41.823 31.2021C39.9296 31.2021 38.4763 30.7288 37.463 29.7821C36.4096 28.7821 35.883 27.3555 35.883 25.5021V16.6421ZM50.5705 16.6421H56.9305C58.4105 16.6421 59.5638 16.9688 60.3905 17.6221C61.2838 18.3555 61.7305 19.3955 61.7305 20.7421C61.7305 21.4755 61.5305 22.1355 61.1305 22.7221C60.6905 23.3621 60.0838 23.7821 59.3105 23.9821V24.0221C60.5505 24.3021 61.2505 25.1355 61.4105 26.5221L61.6505 28.8221C61.7305 29.6888 62.0171 30.3888 62.5105 30.9221H59.9705C59.6371 30.4955 59.4305 29.8755 59.3505 29.0621L59.1705 27.3021C59.0905 26.5155 58.8505 25.9555 58.4505 25.6221C58.0505 25.2755 57.4371 25.1021 56.6105 25.1021H52.9105V30.9221H50.5705V16.6421ZM52.9105 18.6421V23.1021H56.6105C57.5171 23.1021 58.2171 22.9088 58.7105 22.5221C59.1505 22.1221 59.3705 21.5621 59.3705 20.8421C59.3705 20.0555 59.1505 19.4955 58.7105 19.1621C58.2838 18.8155 57.5838 18.6421 56.6105 18.6421H52.9105ZM70.7158 16.3621C72.4091 16.3621 73.7958 16.8021 74.8758 17.6821C75.9025 18.5088 76.5291 19.6555 76.7558 21.1221H74.4758C74.2358 20.1888 73.7891 19.5021 73.1358 19.0621C72.5091 18.6355 71.6891 18.4221 70.6758 18.4221C69.1691 18.4221 68.0425 18.9355 67.2958 19.9621C66.6025 20.8688 66.2558 22.1488 66.2558 23.8021C66.2558 25.4821 66.5958 26.7755 67.2758 27.6821C68.0225 28.6555 69.1758 29.1421 70.7358 29.1421C71.7491 29.1421 72.5825 28.8955 73.2358 28.4021C73.9158 27.8688 74.3958 27.0555 74.6758 25.9621H76.9558C76.6358 27.6421 75.8891 28.9488 74.7158 29.8821C73.6225 30.7621 72.3025 31.2021 70.7558 31.2021C68.3825 31.2021 66.6091 30.4555 65.4358 28.9621C64.4225 27.6955 63.9158 25.9755 63.9158 23.8021C63.9158 21.6555 64.4425 19.9288 65.4958 18.6221C66.6825 17.1155 68.4225 16.3621 70.7158 16.3621ZM79.1642 16.6421H81.5042V22.6021H88.7442V16.6421H91.0842V30.9221H88.7442V24.6021H81.5042V30.9221H79.1642V16.6421ZM97.9508 16.6421H100.611L106.071 30.9221H103.571L102.271 27.3421H96.2908L94.9908 30.9221H92.4908L97.9508 16.6421ZM96.9908 25.4221H101.571L99.3308 19.1621H99.2508L96.9908 25.4221ZM112.505 16.3621C114.198 16.3621 115.512 16.7088 116.445 17.4021C117.445 18.1488 118.018 19.3021 118.165 20.8621H115.845C115.645 19.9821 115.278 19.3488 114.745 18.9621C114.238 18.5755 113.452 18.3821 112.385 18.3821C111.478 18.3821 110.792 18.5088 110.325 18.7621C109.738 19.0555 109.445 19.5488 109.445 20.2421C109.445 20.8688 109.778 21.3555 110.445 21.7021C110.765 21.8755 111.578 22.1688 112.885 22.5821C114.765 23.1555 116.012 23.6221 116.625 23.9821C117.865 24.7155 118.485 25.7421 118.485 27.0621C118.485 28.3421 117.985 29.3555 116.985 30.1021C115.972 30.8355 114.558 31.2021 112.745 31.2021C110.985 31.2021 109.612 30.8621 108.625 30.1821C107.412 29.3421 106.758 28.0155 106.665 26.2021H108.985C109.145 27.2955 109.532 28.0688 110.145 28.5221C110.718 28.9355 111.585 29.1421 112.745 29.1421C113.785 29.1421 114.612 28.9688 115.225 28.6221C115.838 28.2488 116.145 27.7755 116.145 27.2021C116.145 26.4421 115.698 25.8421 114.805 25.4021C114.485 25.2421 113.558 24.9288 112.025 24.4621C110.252 23.9021 109.158 23.5021 108.745 23.2621C107.652 22.6088 107.105 21.6488 107.105 20.3821C107.105 19.1021 107.638 18.1088 108.705 17.4021C109.692 16.7088 110.958 16.3621 112.505 16.3621ZM120.492 16.6421H130.792V18.6421H122.832V22.6021H130.312V24.6021H122.832V28.9221H131.132V30.9221H120.492V16.6421Z" fill="white"/>
<rect x="2.32007" y="2.42212" width="148.662" height="43" rx="21.5" stroke="white" stroke-width="3"/>
</svg>
