<svg width="20" height="20" viewBox="0 0 20 20" fill="none" xmlns="http://www.w3.org/2000/svg">
<path d="M2.08334 14.9009C2.88704 15.3453 8.70476 18.6989 12.8416 16.1142C16.9785 13.5295 16.7503 9.07638 16.7503 7.03584C17.125 6.25075 17.9167 5.85163 17.9167 3.72659C17.1391 4.44492 16.3661 4.68934 15.5979 4.45984C14.8453 3.31232 13.8098 2.80478 12.4914 2.93723C10.5139 3.1359 9.79039 5.07605 10.0033 7.58613C6.95414 9.12809 4.56314 6.46834 3.33092 4.45984C2.91921 6.04163 2.52222 7.94067 3.33092 10.0415C3.87005 11.442 5.16605 12.626 7.21893 13.5936C5.13847 14.7212 3.4266 15.1569 2.08334 14.9009Z" fill="white" stroke="white" stroke-width="1.25" stroke-linejoin="round"/>
</svg>
