<svg width="46" height="57" viewBox="0 0 46 57" fill="none" xmlns="http://www.w3.org/2000/svg">
<path d="M23.0956 56.04C18.6156 56.04 14.6956 55.4 11.3356 54.12C7.97563 52.84 5.36229 51.0267 3.49563 48.68C1.68229 46.3333 0.775625 43.5867 0.775625 40.44C0.775625 34.52 4.08229 30.2533 10.6956 27.64C8.56229 25.8267 7.01563 23.9867 6.05563 22.12C5.14896 20.2533 4.69563 18.04 4.69563 15.48C4.69563 12.6 5.49563 10.04 7.09563 7.8C8.69563 5.56 10.9356 3.82666 13.8156 2.6C16.749 1.37333 20.0823 0.759997 23.8156 0.759997C27.1756 0.759997 30.189 1.29333 32.8556 2.36C35.5223 3.42666 37.5756 4.92 39.0156 6.84C40.509 8.76 41.2556 10.9733 41.2556 13.48C41.2556 15.8267 40.7223 17.8533 39.6556 19.56C38.589 21.2133 36.9356 22.6267 34.6956 23.8C38.3223 25.72 40.989 27.9067 42.6956 30.36C44.4023 32.8133 45.2556 35.7467 45.2556 39.16C45.2556 44.44 43.2823 48.5733 39.3356 51.56C35.4423 54.5467 30.029 56.04 23.0956 56.04ZM26.4556 20.92C28.0023 19.2667 28.7756 17.3467 28.7756 15.16C28.7756 13.3467 28.269 11.9333 27.2556 10.92C26.2956 9.90666 24.909 9.4 23.0956 9.4C21.1756 9.4 19.709 9.77333 18.6956 10.52C17.6823 11.2133 17.1756 12.2267 17.1756 13.56C17.1756 14.8933 17.6823 16.0667 18.6956 17.08C19.7623 18.04 21.469 18.9733 23.8156 19.88L26.4556 20.92ZM23.1756 45C25.2556 45 26.8556 44.6 27.9756 43.8C29.0956 42.9467 29.6556 41.8267 29.6556 40.44C29.6556 39.16 29.0956 38.04 27.9756 37.08C26.909 36.0667 25.1223 35.0533 22.6156 34.04L19.0156 32.6C17.4156 34.4667 16.6156 36.6533 16.6156 39.16C16.6156 40.92 17.229 42.3333 18.4556 43.4C19.6823 44.4667 21.2556 45 23.1756 45Z" fill="#A36DFF"/>
</svg>
