<svg width="40" height="56" viewBox="0 0 40 56" fill="none" xmlns="http://www.w3.org/2000/svg">
<path d="M16.5756 55.04C11.0823 55.04 5.80229 53.9733 0.735626 51.84L1.77563 40.32C3.90896 41.0667 6.09563 41.68 8.33563 42.16C10.629 42.5867 12.709 42.8 14.5756 42.8C17.349 42.8 19.4823 42.24 20.9756 41.12C22.5223 40 23.2956 38.4 23.2956 36.32C23.2956 34.5067 22.7356 33.0667 21.6156 32C20.549 30.9333 19.109 30.4 17.2956 30.4C14.8956 30.4 12.149 31.4667 9.05563 33.6L0.335625 30L2.49563 0.479998H34.7356L33.4556 11.92H13.3756L12.2556 20.8C13.8023 19.8933 15.2956 19.2533 16.7356 18.88C18.229 18.5067 20.0156 18.32 22.0956 18.32C25.349 18.32 28.2556 19.0933 30.8156 20.64C33.429 22.1867 35.4556 24.3467 36.8956 27.12C38.389 29.84 39.1356 32.9067 39.1356 36.32C39.1356 39.8933 38.1756 43.12 36.2556 46C34.3356 48.8267 31.6423 51.04 28.1756 52.64C24.7623 54.24 20.8956 55.04 16.5756 55.04Z" fill="#A36DFF"/>
</svg>
