<svg width="46" height="56" viewBox="0 0 46 56" fill="none" xmlns="http://www.w3.org/2000/svg">
<path d="M20.2156 55.56C14.349 55.56 8.72229 53.7733 3.33563 50.2L7.09563 39.72C9.12229 40.8933 11.0423 41.7733 12.8556 42.36C14.669 42.8933 16.509 43.16 18.3756 43.16C21.8956 43.16 24.5623 42.04 26.3756 39.8C28.189 37.56 29.309 34.0133 29.7356 29.16C26.8556 32.7867 22.749 34.6 17.4156 34.6C12.2956 34.6 8.26896 33.16 5.33563 30.28C2.40229 27.4 0.935625 23.48 0.935625 18.52C0.935625 15.2667 1.84229 12.28 3.65563 9.56C5.52229 6.84 8.02896 4.68 11.1756 3.08C14.3756 1.48 17.8423 0.679998 21.5756 0.679998C26.269 0.679998 30.3756 1.74666 33.8956 3.88C37.469 5.96 40.2156 8.94667 42.1356 12.84C44.109 16.7333 45.0956 21.2933 45.0956 26.52C45.0956 32.0667 44.029 37.0533 41.8956 41.48C39.8156 45.8533 36.8823 49.2933 33.0956 51.8C29.309 54.3067 25.0156 55.56 20.2156 55.56ZM22.6156 24.76C24.8556 24.76 27.1223 24.28 29.4156 23.32C29.309 19.64 28.589 16.8667 27.2556 15C25.9223 13.08 24.0556 12.12 21.6556 12.12C19.789 12.12 18.2956 12.7333 17.1756 13.96C16.0556 15.1333 15.4956 16.7067 15.4956 18.68C15.4956 20.6 16.109 22.0933 17.3356 23.16C18.6156 24.2267 20.3756 24.76 22.6156 24.76Z" fill="#A36DFF"/>
</svg>
