<svg width="46" height="56" viewBox="0 0 46 56" fill="none" xmlns="http://www.w3.org/2000/svg">
<path d="M24.4556 55.56C19.7623 55.56 15.629 54.52 12.0556 52.44C8.53563 50.3067 5.78896 47.2933 3.81563 43.4C1.89563 39.5067 0.935625 34.9467 0.935625 29.72C0.935625 24.1733 1.97563 19.2133 4.05563 14.84C6.18896 10.4133 9.14896 6.94666 12.9356 4.44C16.7223 1.93333 21.0156 0.679998 25.8156 0.679998C31.7356 0.679998 37.3623 2.46666 42.6956 6.04L38.9356 16.52C36.909 15.3467 34.989 14.4933 33.1756 13.96C31.3623 13.3733 29.5223 13.08 27.6556 13.08C24.1356 13.08 21.469 14.2 19.6556 16.44C17.8423 18.68 16.7223 22.2267 16.2956 27.08C17.7356 25.2667 19.6023 23.88 21.8956 22.92C24.189 21.96 26.6956 21.48 29.4156 21.48C34.1623 21.48 37.949 22.9733 40.7756 25.96C43.6556 28.8933 45.0956 32.8133 45.0956 37.72C45.0956 40.9733 44.1623 43.96 42.2956 46.68C40.4823 49.4 37.9756 51.56 34.7756 53.16C31.629 54.76 28.189 55.56 24.4556 55.56ZM24.3756 44.12C26.189 44.12 27.6556 43.5333 28.7756 42.36C29.949 41.1333 30.5356 39.5867 30.5356 37.72C30.5356 35.9067 29.8956 34.4933 28.6156 33.48C27.389 32.4133 25.6556 31.88 23.4156 31.88C21.1756 31.88 18.909 32.36 16.6156 33.32C16.7223 36.84 17.4423 39.5333 18.7756 41.4C20.109 43.2133 21.9756 44.12 24.3756 44.12Z" fill="#A36DFF"/>
</svg>
