<svg width="89" height="56" viewBox="0 0 89 56" fill="none" xmlns="http://www.w3.org/2000/svg">
<path d="M0.0312502 43.24H10.9913V17.16H1.87125V6.68C5.65792 6.68 8.91125 6.28 11.6313 5.48C14.3513 4.62666 17.0713 3.29333 19.7913 1.48H28.1913V43.24H36.5113V55H0.0312502V43.24ZM66 55.64C61.6267 55.64 57.76 54.4933 54.4 52.2C51.04 49.8533 48.4267 46.6 46.56 42.44C44.7467 38.2267 43.84 33.4 43.84 27.96C43.84 22.52 44.7467 17.72 46.56 13.56C48.4267 9.34667 51.04 6.09333 54.4 3.8C57.76 1.50666 61.6267 0.359998 66 0.359998C70.3733 0.359998 74.2133 1.53333 77.52 3.88C80.88 6.17333 83.4933 9.42667 85.36 13.64C87.2267 17.8 88.16 22.5733 88.16 27.96C88.16 33.4 87.2267 38.2267 85.36 42.44C83.5467 46.6 80.96 49.8533 77.6 52.2C74.24 54.4933 70.3733 55.64 66 55.64ZM66 42.68C68.08 42.68 69.7067 41.3733 70.88 38.76C72.0533 36.1467 72.64 32.5467 72.64 27.96C72.64 23.2667 72.0533 19.6667 70.88 17.16C69.76 14.6 68.1333 13.32 66 13.32C63.8667 13.32 62.2133 14.5733 61.04 17.08C59.92 19.5867 59.36 23.2133 59.36 27.96C59.36 32.6533 59.92 36.28 61.04 38.84C62.2133 41.4 63.8667 42.68 66 42.68Z" fill="#A36DFF"/>
</svg>
