<svg width="40" height="56" viewBox="0 0 40 56" fill="none" xmlns="http://www.w3.org/2000/svg">
<path d="M18.1756 55.88C11.989 55.88 6.28229 54.84 1.05563 52.76L3.85563 41C8.33563 42.7067 12.4956 43.56 16.3356 43.56C21.029 43.56 23.3756 41.9333 23.3756 38.68C23.3756 36.3867 22.1756 34.76 19.7756 33.8C17.3756 32.84 13.4023 32.36 7.85563 32.36V22.44C12.9223 22.44 16.709 21.9867 19.2156 21.08C21.7223 20.12 22.9756 18.7333 22.9756 16.92C22.9756 14.52 20.789 13.32 16.4156 13.32C12.2556 13.32 7.80229 14.3067 3.05563 16.28L0.255625 5.16C6.49563 2.28 13.0556 0.839996 19.9356 0.839996C25.109 0.839996 29.2423 2.01333 32.3356 4.36C35.4823 6.65333 37.0556 9.85333 37.0556 13.96C37.0556 16.68 36.3623 19.1067 34.9756 21.24C33.6423 23.32 31.6956 24.9733 29.1356 26.2C32.4956 27.5333 35.0556 29.4 36.8156 31.8C38.629 34.2 39.5356 36.8933 39.5356 39.88C39.5356 43.1333 38.6556 45.96 36.8956 48.36C35.1356 50.76 32.629 52.6267 29.3756 53.96C26.1756 55.24 22.4423 55.88 18.1756 55.88Z" fill="#A36DFF"/>
</svg>
