<svg width="86" height="55" viewBox="0 0 86 55" fill="none" xmlns="http://www.w3.org/2000/svg">
<path d="M0.0312502 43.24H10.9913V17.16H1.87125V6.68C5.65792 6.68 8.91125 6.28 11.6313 5.48C14.3513 4.62666 17.0713 3.29333 19.7913 1.48H28.1913V43.24H36.5113V55H0.0312502V43.24ZM47.2 43.72C54.1867 38.2267 59.44 33.48 62.96 29.48C66.5333 25.48 68.32 22.1467 68.32 19.48C68.32 17.72 67.7333 16.4133 66.56 15.56C65.44 14.6533 63.8133 14.2 61.68 14.2C57.8933 14.2 54.1333 15.24 50.4 17.32L46.16 5.4C49.3067 3.90667 52.3733 2.78666 55.36 2.04C58.4 1.29333 61.6267 0.919995 65.04 0.919995C68.9867 0.919995 72.4533 1.66666 75.44 3.16C78.4267 4.6 80.72 6.6 82.32 9.16C83.92 11.6667 84.72 14.5467 84.72 17.8C84.72 22.7067 82.9333 27.24 79.36 31.4C75.7867 35.56 70.32 39.5333 62.96 43.32H85.36V55H47.2V43.72Z" fill="#A36DFF"/>
</svg>
