<svg width="40" height="55" viewBox="0 0 40 55" fill="none" xmlns="http://www.w3.org/2000/svg">
<path d="M1.21563 43.72C8.20229 38.2267 13.4556 33.48 16.9756 29.48C20.549 25.48 22.3356 22.1467 22.3356 19.48C22.3356 17.72 21.749 16.4133 20.5756 15.56C19.4556 14.6533 17.829 14.2 15.6956 14.2C11.909 14.2 8.14896 15.24 4.41563 17.32L0.175625 5.4C3.32229 3.90667 6.38896 2.78666 9.37563 2.04C12.4156 1.29333 15.6423 0.919995 19.0556 0.919995C23.0023 0.919995 26.469 1.66666 29.4556 3.16C32.4423 4.6 34.7356 6.6 36.3356 9.16C37.9356 11.6667 38.7356 14.5467 38.7356 17.8C38.7356 22.7067 36.949 27.24 33.3756 31.4C29.8023 35.56 24.3356 39.5333 16.9756 43.32H39.3756V55H1.21563V43.72Z" fill="#A36DFF"/>
</svg>
